<svg version="1.1" id="Layer_1" xmlns="http://www.w3.org/2000/svg" xmlns:xlink="http://www.w3.org/1999/xlink" x="0px" y="0px"
	 viewBox="0 0 81 81" style="enable-background:new 0 0 81 81;" xml:space="preserve">
<path d="M76.5,49.5c0-2.5,2-4.5,4.5-4.5V0H0v63c2.5,0,4.5,2,4.5,4.5S2.5,72,0,72v9h81V54C78.5,54,76.5,52,76.5,49.5z M36,67.5
	c0,2.5-2,4.5-4.5,4.5h-18C11,72,9,70,9,67.5v0C9,65,11,63,13.5,63h18C34,63,36,65,36,67.5L36,67.5z M72,49.5c0,2.5-2,4.5-4.5,4.5
	h-18C47,54,45,52,45,49.5v0c0-2.5,2-4.5,4.5-4.5h18C70,45,72,47,72,49.5L72,49.5z"/>
</svg>
